<?xml version="1.0" encoding="UTF-8"?>
<svg id="Layer_1" xmlns="http://www.w3.org/2000/svg" version="1.1" viewBox="0 0 1000 1000">
  <defs>
    <style>
      .st0 { fill: #3d3b3c; }
      .st1 { fill: #f97316; }
    </style>
  </defs>
  <path class="st1" d="M763.84,383.15c-22.29-15.76-40.08-33.59-58.65-52.43-.77-.78-1.66-1.84-2.54-1.84-.7,0-1.12,1.4-2.47,2.17-44.83,114.42-112.52,223.56-200.07,312.03-89.32-90.53-154.76-197.77-201.58-315.78-17.66,17.85-33.68,34.54-53.3,49.02-36.61,29.01-76.84,51.47-122.38,66.76-14.56-41.16-25.99-82.86-32.81-127.57,41.29-13.62,77.63-34.98,109.97-63.59,39.35-34.71,69.65-77.25,91.88-125.14l64.28-.08c25.03,118.45,71.9,231.29,144.11,330.4,71.33-99.52,119.03-211.77,143.63-330.49l64.61.19c15.55,31.53,32.15,61.65,55.75,87.55,38.57,46.8,87.62,82.13,145.92,101.05-6.37,44.15-17.95,84.96-32.5,127.47-41.51-13.28-78.73-33.52-113.83-59.73Z"/>
  <path class="st0" d="M737.73,474.93c32.93,20.45,66.47,37.67,104.13,50.83-81.21,156.08-196.42,296.38-341.75,398.07-110.75-77.64-201.66-175.11-276.04-286.6-.89-3-1.67-4.99-4.36-6.65-22.12-33.72-42.24-67.97-61.29-104.79,36.92-13.07,70.96-29.91,104.08-51.03,28.17,51.91,59.84,99.18,94.99,144.85,2.68,4.14,4.79,7.8,8.55,10.77l36.07,41.61c.47,3.59,3.54,4.27,5.75,6.64,28.86,30.99,58.84,60.11,92.29,87.48,37.66-30.79,71.21-64.05,103.33-99.83,51.69-58.13,95.54-120.95,134.25-191.34Z"/>
  <path class="st0" d="M500.15,267.84c-28.24-43.35-45.34-90.98-54.69-140.76l54.68-50.2,54.68,50.22c-9.36,49.47-26.11,96.76-54.66,140.75Z"/>
</svg>
